<?xml version="1.0" standalone="no"?>
<!DOCTYPE svg PUBLIC "-//W3C//DTD SVG 20010904//EN"
 "http://www.w3.org/TR/2001/REC-SVG-20010904/DTD/svg10.dtd">
<svg version="1.0" xmlns="http://www.w3.org/2000/svg"
 width="354.000000pt" height="354.000000pt" viewBox="0 0 354.000000 354.000000"
 preserveAspectRatio="xMidYMid meet">
<metadata>
Created by potrace 1.14, written by Peter Selinger 2001-2017
</metadata>
<g transform="translate(0.000000,354.000000) scale(0.100000,-0.100000)"
fill="#000000" stroke="none">
<path d="M1788 2995 c-2 -2 -46 -5 -98 -6 -239 -7 -514 -116 -705 -281 -283
-244 -432 -573 -433 -953 0 -67 4 -128 8 -134 5 -9 23 -10 66 -4 147 21 431
-42 518 -114 16 -13 52 -36 80 -50 28 -14 84 -49 125 -77 116 -80 153 -104
201 -128 25 -13 47 -26 48 -30 2 -5 9 -8 15 -8 7 0 35 -18 62 -40 28 -22 53
-40 57 -40 4 0 28 -14 54 -32 112 -75 251 -135 484 -209 93 -30 118 -33 220
-34 106 0 118 2 152 25 36 24 75 76 65 86 -3 3 -34 -3 -69 -14 -41 -13 -67
-17 -75 -10 -7 6 -14 5 -18 -2 -6 -10 -66 -8 -130 4 -11 2 -40 7 -65 11 -136
21 -361 102 -510 183 -124 67 -237 139 -355 223 -149 107 -330 213 -426 252
-58 23 -130 39 -284 63 l-40 7 30 13 c96 41 397 44 505 6 60 -21 149 -68 181
-95 10 -9 24 -17 29 -17 6 0 10 -3 10 -8 0 -4 20 -18 45 -32 25 -14 45 -28 45
-32 0 -5 5 -8 12 -8 6 0 27 -12 47 -27 20 -16 52 -36 71 -47 29 -15 89 -60
157 -116 7 -5 15 -10 18 -10 4 0 66 -29 138 -64 139 -66 218 -94 355 -121 227
-45 444 -9 508 84 13 19 24 39 24 42 0 4 -33 -3 -72 -16 -322 -102 -498 -85
-840 82 -119 58 -204 114 -192 126 7 6 85 -12 99 -23 8 -6 98 -33 150 -44 6
-1 37 -8 70 -15 33 -7 74 -16 90 -20 17 -4 104 -6 195 -6 208 3 263 17 532
137 65 29 67 36 68 278 2 237 -40 407 -153 618 -115 214 -292 385 -512 494
-147 74 -303 118 -435 125 -47 2 -93 5 -102 7 -9 2 -18 2 -20 1z"/>
<path d="M3480 1898 c-64 -81 -236 -249 -301 -293 -111 -74 -126 -90 -149
-167 -12 -40 -28 -85 -36 -100 -8 -16 -11 -28 -8 -28 13 0 90 48 123 77 79 68
240 249 277 312 10 17 21 31 25 31 4 0 9 8 13 18 3 9 11 26 18 36 53 80 103
175 96 182 -2 1 -28 -29 -58 -68z"/>
<path d="M455 1583 c-11 -2 -29 -8 -40 -13 -11 -5 -49 -18 -85 -30 -36 -12
-103 -40 -149 -63 -112 -56 -126 -64 -140 -81 -10 -11 0 -10 40 4 115 42 334
88 432 89 35 1 37 3 33 29 -2 15 -5 37 -5 50 -1 18 -6 22 -33 21 -18 -1 -42
-3 -53 -6z"/>
<path d="M590 1460 c0 -26 29 -118 66 -207 51 -124 183 -306 290 -399 187
-162 391 -267 591 -303 32 -6 69 -13 83 -16 14 -3 84 -6 155 -6 126 0 227 10
310 33 22 5 50 12 62 14 12 2 56 18 97 34 41 17 83 30 94 30 11 0 25 6 31 14
9 11 -10 14 -116 19 -98 4 -149 11 -217 32 -104 31 -293 119 -386 180 -36 23
-85 55 -110 70 -45 28 -270 193 -280 205 -3 3 -34 26 -70 50 -36 24 -94 64
-130 88 -97 66 -200 111 -342 146 -113 29 -128 31 -128 16z"/>
<path d="M3095 1310 c-27 -27 -61 -55 -75 -62 -34 -17 -45 -26 -93 -74 -38
-38 -112 -129 -132 -163 -8 -14 75 26 126 61 14 9 28 15 31 13 3 -3 27 20 54
51 27 31 56 63 64 72 28 29 80 116 80 134 0 10 -1 18 -2 18 -2 -1 -25 -23 -53
-50z"/>
<path d="M2915 987 c-22 -12 -42 -25 -45 -29 -3 -3 -50 -29 -105 -57 -91 -47
-310 -199 -301 -209 17 -16 292 104 316 138 3 3 13 11 22 16 36 19 175 165
156 164 -2 0 -21 -10 -43 -23z"/>
</g>
</svg>
